<?xml version="1.0" encoding="UTF-8"?>
<svg version="1.1" xmlns="http://www.w3.org/2000/svg" width="800" height="281">
<path d="M0 0 C1.33278992 0.00303635 1.33278992 0.00303635 2.69250488 0.00613403 C3.5987561 0.00517731 4.50500732 0.00422058 5.4387207 0.00323486 C7.35876535 0.002553 9.27881229 0.00440771 11.19885254 0.00857544 C14.14861192 0.01392361 17.09821902 0.00863066 20.04797363 0.00222778 C21.90865105 0.00288856 23.76932838 0.00416972 25.63000488 0.00613403 C26.51853149 0.0041098 27.40705811 0.00208557 28.32250977 0 C34.546305 0.02399665 34.546305 0.02399665 35.66125488 1.13894653 C35.76184806 3.40426714 35.79035867 5.67278624 35.79255676 7.94033813 C35.79467248 8.66015381 35.79678819 9.37996949 35.79896802 10.12159777 C35.80499645 12.55252586 35.8039658 14.98340246 35.80310059 17.41433716 C35.80613056 19.15042713 35.80965156 20.88651631 35.81362915 22.62260437 C35.8215368 26.3734496 35.82667033 30.12428523 35.82991982 33.87513733 C35.83582631 39.81958934 35.85236775 45.76398132 35.8712616 51.70840454 C35.8776 53.74422451 35.88392561 55.78004452 35.89023876 57.81586456 C35.89340457 58.83587712 35.89657038 59.85588968 35.89983213 60.90681171 C35.94186147 74.74931565 35.97482586 88.5917933 35.98718262 102.43435669 C35.99559659 111.76404915 36.01821848 121.09359458 36.05653828 130.42321348 C36.07620359 135.35621176 36.08873581 140.2889907 36.08370399 145.22203064 C36.07901391 149.87770285 36.09309766 154.53296189 36.12071609 159.18855095 C36.12755798 160.88425782 36.12783136 162.58000807 36.12051582 164.27571297 C36.03644718 185.9802759 40.85378693 206.20190917 56.66125488 222.13894653 C71.29569789 234.4589968 88.77830808 239.15541986 107.66125488 238.13894653 C121.4765491 236.57965825 134.58143861 230.73877155 144.66125488 221.13894653 C145.32125488 221.13894653 145.98125488 221.13894653 146.66125488 221.13894653 C146.92293457 220.5627356 147.18461426 219.98652466 147.45422363 219.39285278 C148.73623558 216.99893404 150.22522201 215.15064851 151.97375488 213.07644653 C164.76399062 196.75695488 165.79547579 176.11388207 165.86657715 156.23635864 C165.8761692 154.53061696 165.88618003 152.82487759 165.89657593 151.11914062 C165.9234874 146.5103313 165.94457098 141.90151188 165.96457791 137.2926681 C165.98652286 132.46801739 166.01386973 127.64339731 166.04063416 122.81877136 C166.09044643 113.69239312 166.13542756 104.56599777 166.17865652 95.43958622 C166.22812719 85.04535914 166.28300871 74.65116281 166.33833611 64.25696552 C166.45198004 42.88431986 166.55814287 21.51164578 166.66125488 0.13894653 C180.52125488 0.13894653 194.38125488 0.13894653 208.66125488 0.13894653 C208.66125488 89.89894653 208.66125488 179.65894653 208.66125488 272.13894653 C194.80125488 272.13894653 180.94125488 272.13894653 166.66125488 272.13894653 C166.33125488 264.87894653 166.00125488 257.61894653 165.66125488 250.13894653 C164.44437988 251.29394653 163.22750488 252.44894653 161.97375488 253.63894653 C141.08241984 272.11472096 113.92957626 278.61162591 86.66125488 277.13894653 C60.16559497 274.71893019 35.22042518 263.40436888 17.66125488 243.13894653 C7.84507954 231.01489297 0.92616026 217.82742475 -3.21374512 202.76394653 C-3.4049292 202.08307983 -3.59611328 201.40221313 -3.79309082 200.70071411 C-7.41838806 186.22420943 -7.63735045 170.95463176 -7.58166504 156.11697388 C-7.582742 154.4113813 -7.58468678 152.70578909 -7.5874176 151.00019836 C-7.59219649 146.43731487 -7.58470381 141.87453166 -7.57446456 137.31166029 C-7.5655898 132.51691802 -7.56744316 127.72217801 -7.56782532 122.9274292 C-7.56689429 114.90058743 -7.55827808 106.87378391 -7.54455566 98.84695435 C-7.52873944 89.56086348 -7.52356116 80.27481412 -7.52429122 70.98871076 C-7.524965 61.07984779 -7.51804463 51.17100081 -7.50884461 41.26214266 C-7.50671137 38.40903825 -7.50600324 35.55593641 -7.5056057 32.70283127 C-7.50460536 28.23918184 -7.4985344 23.77556755 -7.48843956 19.3119297 C-7.48550756 17.67075249 -7.4842906 16.02957123 -7.4848671 14.38839149 C-7.48535423 12.15858859 -7.47973803 9.92888571 -7.47245789 7.69909668 C-7.47078204 6.44893454 -7.4691062 5.19877239 -7.46737957 3.91072655 C-7.22766058 -1.25467269 -4.52802771 0.0174584 0 0 Z " fill="#000000" transform="translate(10.3387451171875,2.861053466796875)"/>
<path d="M0 0 C13.2 0 26.4 0 40 0 C40.33 31.68 40.66 63.36 41 96 C43.97 93.36 46.94 90.72 50 88 C52.35315876 86.33924734 54.59488429 84.82034725 57.0625 83.375 C57.69462402 83.00165527 58.32674805 82.62831055 58.97802734 82.24365234 C83.14057818 68.44920516 110.81031256 66.26216472 137.5625 72.625 C164.93163178 80.55765745 187.2820618 98.74819217 201.23193359 123.49169922 C213.69396653 146.82364288 217.04367238 175.47330763 210 201 C201.47303002 228.8305213 183.9289297 251.51071466 158.12475586 265.29223633 C132.58094616 278.32453772 103.85156155 280.713456 76.52392578 272.10058594 C63.06580646 267.55644476 51.80129861 260.13956036 41 251 C40.67 257.93 40.34 264.86 40 272 C26.47 272 12.94 272 -1 272 C-1.02258434 237.49322443 -1.04049769 202.98645143 -1.05106533 168.47967008 C-1.05231611 164.41019345 -1.05361042 160.34071684 -1.05493164 156.27124023 C-1.05519395 155.46104594 -1.05545626 154.65085165 -1.05572652 153.81610601 C-1.06008343 140.68003077 -1.06797109 127.54395988 -1.0771528 114.40788723 C-1.08648876 100.93926487 -1.09205549 87.4706448 -1.09408849 74.00201935 C-1.09546384 65.6843582 -1.09981506 57.36670936 -1.10791647 49.04905199 C-1.11318322 43.35319593 -1.11480446 37.65734628 -1.11350138 31.96148796 C-1.11285788 28.67029632 -1.1144152 25.37913097 -1.11920547 22.08794212 C-1.12413535 18.52809798 -1.12300091 14.96830775 -1.12025452 11.40846252 C-1.12316736 10.35692838 -1.1260802 9.30539423 -1.12908131 8.22199541 C-1.12709026 7.27600416 -1.12509921 6.33001291 -1.12304783 5.35535526 C-1.12342755 4.53250131 -1.12380727 3.70964735 -1.1241985 2.86185843 C-1 1 -1 1 0 0 Z M61 123 C60.39671875 123.52078125 59.7934375 124.0415625 59.171875 124.578125 C46.63327766 136.21303965 39.90987325 152.4006445 38.78125 169.26953125 C38.25162546 188.93184228 44.45503554 206.6252057 58 221 C70.34727833 233.96733816 87.89512371 240.69208285 105.5625 241.25 C121.37926508 241.07228354 135.62482451 235.66482297 148 226 C148.68707031 225.48953125 149.37414062 224.9790625 150.08203125 224.453125 C163.65411048 213.63829264 170.58440992 196.77805203 173 180 C174.58139424 161.97643825 169.23045946 145.28750705 158.4375 130.9375 C157.3117397 129.60774287 156.16702189 128.29369632 155 127 C154.49339844 126.401875 153.98679687 125.80375 153.46484375 125.1875 C143.1286761 113.81009679 126.58684745 106.7575538 111.35546875 105.76171875 C92.36987864 105.25397257 75.51603844 110.28440044 61 123 Z " fill="#000000" transform="translate(248,3)"/>
<path d="M0 0 C3.01577354 2.64857519 5.85662072 5.43633046 8.67578125 8.29296875 C9.41441406 9.03289062 10.15304687 9.7728125 10.9140625 10.53515625 C33.59346662 34.57972839 36.67578125 64.76591115 36.67578125 96.29296875 C-16.12421875 96.29296875 -68.92421875 96.29296875 -123.32421875 96.29296875 C-115.72316411 116.92440278 -107.65899189 133.65629742 -87.32421875 143.29296875 C-68.47323235 150.59970613 -48.80758319 151.92028789 -29.85546875 143.64453125 C-19.47798524 138.10346752 -10.27518368 130.83474788 -3.32421875 121.29296875 C0.3629189 122.61895155 3.23519179 124.24283566 6.36328125 126.59375 C7.22695313 127.24150391 8.090625 127.88925781 8.98046875 128.55664062 C9.86992188 129.23275391 10.759375 129.90886719 11.67578125 130.60546875 C13.00996094 131.60223633 13.00996094 131.60223633 14.37109375 132.61914062 C18.77659845 135.94299529 22.91820106 139.24574175 26.67578125 143.29296875 C9.65064968 165.38941611 -12.67880321 180.35832715 -40.58911133 184.81420898 C-57.53070122 186.98575338 -76.01750561 186.55384901 -92.32421875 181.29296875 C-93.33863037 180.97948486 -93.33863037 180.97948486 -94.37353516 180.65966797 C-110.99402439 175.41047158 -124.14478592 166.63981647 -136.32421875 154.29296875 C-137.55785156 153.07480469 -137.55785156 153.07480469 -138.81640625 151.83203125 C-157.55625998 132.31405211 -165.01377483 105.85939297 -164.7265625 79.36206055 C-163.94867861 50.66212296 -151.74798654 24.57043124 -131.0703125 4.69921875 C-117.94794025 -6.79918993 -103.28081196 -14.41394976 -86.32421875 -18.70703125 C-85.45539063 -18.93261719 -84.5865625 -19.15820312 -83.69140625 -19.390625 C-55.16605637 -25.42003569 -22.51484477 -18.89794824 0 0 Z M-110.05615234 36.70263672 C-115.61407839 43.6730507 -122.32421875 54.20989556 -122.32421875 63.29296875 C-83.38421875 63.29296875 -44.44421875 63.29296875 -4.32421875 63.29296875 C-10.56789612 44.56193664 -18.35389564 30.21947695 -36.19140625 20.73046875 C-62.36245224 8.72180925 -91.10051841 14.95754495 -110.05615234 36.70263672 Z " fill="#000000" transform="translate(639.32421875,93.70703125)"/>
<path d="M0 0 C5.259375 0.0309375 5.259375 0.0309375 10.625 0.0625 C10.625 12.6025 10.625 25.1425 10.625 38.0625 C5.3346875 38.18625 5.3346875 38.18625 -0.0625 38.3125 C-14.98565728 38.86668394 -27.45219291 41.55042346 -38.125 52.75 C-46.7372765 63.20062787 -48.66883372 75.26020556 -48.69384766 88.35351562 C-48.70891609 90.16943207 -48.70891609 90.16943207 -48.72428894 92.02203369 C-48.74976521 95.31898367 -48.76669044 98.61584063 -48.77971697 101.91285896 C-48.79541803 105.36688174 -48.82218575 108.82081894 -48.8477478 112.27478027 C-48.89441273 118.80518585 -48.93121601 125.33560774 -48.96442068 131.86609411 C-49.00272925 139.30512708 -49.05211633 146.74407382 -49.10240483 154.18303394 C-49.20554183 169.47613309 -49.29339895 184.76926847 -49.375 200.0625 C-62.905 200.0625 -76.435 200.0625 -90.375 200.0625 C-90.375 134.7225 -90.375 69.3825 -90.375 2.0625 C-77.175 2.0625 -63.975 2.0625 -50.375 2.0625 C-50.045 8.6625 -49.715 15.2625 -49.375 22.0625 C-48.116875 20.556875 -46.85875 19.05125 -45.5625 17.5 C-33.22137263 3.86691086 -17.80728399 -0.14819731 0 0 Z " fill="#000000" transform="translate(786.375,74.9375)"/>
</svg>
